<svg xmlns="http://www.w3.org/2000/svg" width="129.497" height="23.668" viewBox="0 0 129.497 23.668"><defs><style>.a{fill:#f99df0;}.b{fill:#fff;}</style></defs><g transform="translate(-71.649 -972.836)"><path class="a" d="M89.238,981.235a6.057,6.057,0,0,0-5.647,3.479,6.058,6.058,0,0,0-5.648-3.479,6.383,6.383,0,0,0-6.294,6.347c0,6.84,6.563,12.385,11.942,12.385s11.941-5.545,11.941-12.385a6.383,6.383,0,0,0-6.294-6.347m1.081,6.609a6.729,6.729,0,0,1-13.457,0v-.193h2.376v.193a4.353,4.353,0,0,0,8.706,0v-.193h2.376Z" transform="translate(0 -3.499)"/><path class="b" d="M138.466,980.483a9.114,9.114,0,0,0-6.636-2.748,8.908,8.908,0,0,0-5.882,2.078v-6.977h-3.5v14.283a9.385,9.385,0,1,0,18.769,0,9.385,9.385,0,0,0-.687-3.611,9.12,9.12,0,0,0-2.061-3.025m-1.215,8.907a6.059,6.059,0,0,1-1.257,1.869,5.969,5.969,0,0,1-1.869,1.274,5.894,5.894,0,0,1-4.608,0,5.884,5.884,0,0,1-3.109-3.134,5.865,5.865,0,0,1,0-4.558,5.881,5.881,0,0,1,3.109-3.134,5.887,5.887,0,0,1,4.608,0,5.972,5.972,0,0,1,1.869,1.274,6.06,6.06,0,0,1,1.257,1.868,5.825,5.825,0,0,1,0,4.542" transform="translate(-21.162 0)"/><path class="b" d="M242.717,983.983a9.384,9.384,0,1,0,0,13.272,8.968,8.968,0,0,0,2.748-6.636,9.655,9.655,0,0,0-.7-3.6,9.178,9.178,0,0,0-2.052-3.032m-1.215,8.906a6.038,6.038,0,0,1-1.257,1.869,5.969,5.969,0,0,1-1.869,1.273,5.887,5.887,0,0,1-4.608,0,5.9,5.9,0,0,1-1.86-1.265,5.978,5.978,0,0,1-1.248-1.869,5.86,5.86,0,0,1,0-4.559,5.988,5.988,0,0,1,1.248-1.867,5.926,5.926,0,0,1,1.86-1.267,5.907,5.907,0,0,1,4.608,0,5.974,5.974,0,0,1,1.869,1.275,6.038,6.038,0,0,1,1.257,1.869,5.816,5.816,0,0,1,0,4.541" transform="translate(-64.593 -3.499)"/><path class="b" d="M279.522,987.015a9.209,9.209,0,0,0-2.053-3.033,9.385,9.385,0,1,0,0,13.272,8.973,8.973,0,0,0,2.748-6.636,9.652,9.652,0,0,0-.695-3.6m-3.268,5.874A6.061,6.061,0,0,1,275,994.757a5.97,5.97,0,0,1-1.869,1.274,5.893,5.893,0,0,1-4.608,0,5.884,5.884,0,0,1-3.109-3.134,5.865,5.865,0,0,1,0-4.558,5.88,5.88,0,0,1,3.109-3.133,5.887,5.887,0,0,1,4.608,0A5.97,5.97,0,0,1,275,986.478a6.059,6.059,0,0,1,1.257,1.868,5.825,5.825,0,0,1,0,4.542" transform="translate(-79.07 -3.498)"/><path class="b" d="M207.212,979.8a9.39,9.39,0,1,0,.754,13.96,8.973,8.973,0,0,0,2.748-6.636V972.836h-3.5Zm-.461,9.594a6.06,6.06,0,0,1-1.257,1.869,5.968,5.968,0,0,1-1.869,1.274,5.895,5.895,0,0,1-4.608,0,5.928,5.928,0,0,1-1.86-1.265,5.989,5.989,0,0,1-1.248-1.869,5.865,5.865,0,0,1,0-4.558,6,6,0,0,1,1.248-1.869,5.937,5.937,0,0,1,1.86-1.265,5.887,5.887,0,0,1,4.608,0,5.972,5.972,0,0,1,1.869,1.274,6.06,6.06,0,0,1,1.257,1.868,5.825,5.825,0,0,1,0,4.542" transform="translate(-50.116 0)"/><path class="b" d="M175.964,990.618A9.385,9.385,0,1,0,166.58,1000a7.305,7.305,0,0,0,6.027-2.691v2.51h3.357l-.006-8.95c0-.085.006-.169.006-.254m-9.385,5.892a5.891,5.891,0,1,1,5.892-5.892,5.9,5.9,0,0,1-5.892,5.892" transform="translate(-35.638 -3.499)"/></g></svg>