<svg xmlns="http://www.w3.org/2000/svg" width="29.68" height="24.593" viewBox="0 0 29.68 24.593"><defs><style>.a{fill:#fff;}</style></defs><path class="a" d="M3608.12.445v3.5a29.785,29.785,0,0,0-6.6,4.114,53.511,53.511,0,0,0-5.621,5.7l-4.072-4.806a53.826,53.826,0,0,0,6.313-4.154c-1.955-.122-4.235-.244-6.476-.244a104.113,104.113,0,0,0-12.055.814V-.94a104.113,104.113,0,0,0,12.055.814c2.281,0,4.562-.122,6.517-.244a55.788,55.788,0,0,0-6.354-4.195L3595.9-9.37a53.511,53.511,0,0,0,5.621,5.7A29.785,29.785,0,0,0,3608.12.445Z" transform="translate(-3574.215 198.191) rotate(-3)"/></svg>