<svg xmlns="http://www.w3.org/2000/svg" width="59.871" height="56.363" viewBox="0 0 59.871 56.363"><defs><style>.a{fill:#fff;}</style></defs><path class="a" d="M2299.685-719.638c-6.244,0-11.454,6.723-13.574,16.453-2.121-9.73-7.329-16.453-13.573-16.453-8.186,0-14.6,11.544-14.6,26.28s6.412,26.28,14.6,26.28c6.245,0,11.453-6.723,13.573-16.453,2.12,9.73,7.33,16.453,13.574,16.453,8.185,0,14.6-11.544,14.6-26.28S2307.87-719.638,2299.685-719.638Zm0,50.515c-3.139,0-6.011-2.242-8.214-5.934a5.224,5.224,0,0,0,3.209,1.183c4.4,0,7.958-6.234,7.958-13.924a23.1,23.1,0,0,0-.661-5.559h-5.085l2.372-5.821a6.008,6.008,0,0,0-4.583-2.544c-3.5,0-6.464,3.948-7.532,9.434-.008-.355-.014-.71-.014-1.069,0-13.363,5.63-24.235,12.551-24.235s12.551,10.872,12.551,24.235S2306.606-669.123,2299.685-669.123Zm-27.147,0c-3.14,0-6.011-2.242-8.213-5.934a5.222,5.222,0,0,0,3.209,1.182c4.395,0,7.958-6.234,7.958-13.924a23.1,23.1,0,0,0-.662-5.559h-5.914l2.632-6.461a5.638,5.638,0,0,0-4.015-1.9c-3.5,0-6.464,3.947-7.532,9.433-.008-.354-.015-.71-.015-1.068,0-13.363,5.63-24.235,12.551-24.235s12.55,10.872,12.55,24.235S2279.458-669.123,2272.538-669.123Z" transform="matrix(0.998, 0.07, -0.07, 0.998, -2298.974, 560.379)"/></svg>