<svg xmlns="http://www.w3.org/2000/svg" width="41.354" height="32.322" viewBox="0 0 41.354 32.322"><defs><style>.a{fill:#fff;}</style></defs><path class="a" d="M2181.96-476.092a10.746,10.746,0,0,0-9.208-4.495,12.1,12.1,0,0,0-9.236,4.827,12.1,12.1,0,0,0-9.236-4.827,10.749,10.749,0,0,0-9.208,4.495,11.249,11.249,0,0,0,1.35,14.914l.029.032,9.433,9.659a10.584,10.584,0,0,0,7.632,3.215h0a10.587,10.587,0,0,0,7.633-3.214l9.432-9.659c.01-.01.02-.021.028-.032A11.247,11.247,0,0,0,2181.96-476.092Z" transform="translate(-2142.84 480.594)"/></svg>